<svg viewBox="54.729 0 37.6262 34.2056" fill="none" xmlns="http://www.w3.org/2000/svg">
  <g clip-path="url(#clip-beanie)">
    <path d="M56.2341 10.9458H54.729V32.8374H56.2341V10.9458Z" fill="#000000">
    </path>
    <path d="M90.85 10.9458V32.8374H56.2339V34.2056H90.85V32.8374H92.355V10.9458H90.85Z" fill="#000000">
    </path>
    <path d="M90.8503 8.20947H89.3452V10.9459H90.8503V8.20947Z" fill="#000000">
    </path>
    <path d="M57.7389 8.20947H56.2339V10.9459H57.7389V8.20947Z" fill="#000000">
    </path>
    <path d="M89.3449 5.4729H87.8398V8.20935H89.3449V5.4729Z" fill="#000000">
    </path>
    <path d="M59.2438 5.4729H57.7388V8.20935H59.2438V5.4729Z" fill="#000000">
    </path>
    <path d="M87.84 4.10474H86.335V5.47296H87.84V4.10474Z" fill="#000000">
    </path>
    <path d="M80.315 0H66.7695V1.36822H80.315V0Z" fill="#000000">
    </path>
    <path d="M83.325 1.36816H80.3149V2.73639H83.325V1.36816Z" fill="#000000">
    </path>
    <path d="M66.7689 1.36816H63.7588V2.73639H66.7689V1.36816Z" fill="#000000">
    </path>
    <path d="M63.7591 2.73657H60.749V4.1048H63.7591V2.73657Z" fill="#000000">
    </path>
    <path d="M60.7492 4.10474H59.2441V5.47296H60.7492V4.10474Z" fill="#000000">
    </path>
    <path d="M86.3353 2.73657H83.3252V4.1048H86.3353V2.73657Z" fill="#000000">
    </path>
    <path d="M80.3151 21.8916H78.8101V24.6281H80.3151V21.8916Z" fill="#000000">
    </path>
    <path d="M81.82 24.6281H80.3149V27.3645H81.82V24.6281H83.325V21.8916H81.82V24.6281Z" fill="#000000">
    </path>
    <path d="M78.8102 24.6279H77.3052V27.3644H78.8102V24.6279Z" fill="#000000">
    </path>
    <path d="M77.3044 21.8916H75.7993V24.6281H77.3044V21.8916Z" fill="#000000">
    </path>
    <path d="M74.2946 21.8916H72.7896V24.6281H74.2946V21.8916Z" fill="#000000">
    </path>
    <path d="M75.7995 24.6279H74.2944V27.3644H75.7995V24.6279Z" fill="#000000">
    </path>
    <path d="M72.7897 24.6279H71.2847V27.3644H72.7897V24.6279Z" fill="#000000">
    </path>
    <path d="M71.2843 21.8916H69.7793V24.6281H71.2843V21.8916Z" fill="#000000">
    </path>
    <path d="M69.7795 24.6279H68.2744V27.3644H69.7795V24.6279Z" fill="#000000">
    </path>
    <path d="M65.2638 21.8916H63.7588V24.6281H65.2638V21.8916Z" fill="#000000">
    </path>
    <path d="M68.2747 21.8916H66.7697V24.6281H65.2646V27.3645H66.7697V24.6281H68.2747V21.8916Z" fill="#000000">
    </path>
    <path d="M63.759 24.6284H62.2539V27.3649H63.759V24.6284Z" fill="#000000">
    </path>
    <path d="M84.8302 24.6279H83.3252V27.3644H84.8302V24.6279Z" fill="#000000">
    </path>
    <path d="M66.7695 15.0504H68.2746V6.84106H66.7695V15.0504Z" fill="#000000">
    </path>
    <path d="M80.3151 6.84106H78.8101V15.0504H80.3151V6.84106Z" fill="#000000">
    </path>
  </g>
  <defs>
    <clipPath id="clip-beanie">
      <rect x="54.729" y="0" width="37.6262" height="34.2056" />
    </clipPath>
  </defs>
</svg>

